<svg width="38" height="38" viewBox="0 0 38 38" fill="none" xmlns="http://www.w3.org/2000/svg">
<path d="M19 38C13.9609 38 9.12816 35.9982 5.56497 32.435C2.00178 28.8718 0 24.0391 0 19C0 13.9609 2.00178 9.12816 5.56497 5.56497C9.12816 2.00178 13.9609 0 19 0C24.0391 0 28.8718 2.00178 32.435 5.56497C35.9982 9.12816 38 13.9609 38 19C38 24.0391 35.9982 28.8718 32.435 32.435C28.8718 35.9982 24.0391 38 19 38ZM19 34.2C23.0313 34.2 26.8975 32.5986 29.748 29.748C32.5986 26.8975 34.2 23.0313 34.2 19C34.2 14.9687 32.5986 11.1025 29.748 8.25198C26.8975 5.40142 23.0313 3.8 19 3.8C14.9687 3.8 11.1025 5.40142 8.25198 8.25198C5.40142 11.1025 3.8 14.9687 3.8 19C3.8 23.0313 5.40142 26.8975 8.25198 29.748C11.1025 32.5986 14.9687 34.2 19 34.2ZM17.1 19.779V7.6H20.9V18.221L28.405 25.726L25.726 28.405L17.1 19.779Z" fill="#E8B431"/>
</svg>
